<svg xmlns="http://www.w3.org/2000/svg" version="1.1" xmlns:xlink="http://www.w3.org/1999/xlink" xmlns:svgjs="http://svgjs.dev/svgjs" width="1000" height="1000" viewBox="0 0 1000 1000"><rect width="1000" height="1000" fill="#ffffff"></rect><g transform="matrix(0.7,0,0,0.7,149.57575757575756,282.1265587044535)"><svg viewBox="0 0 396 247" data-background-color="#efe4e4" preserveAspectRatio="xMidYMid meet" height="623" width="1000" xmlns="http://www.w3.org/2000/svg" xmlns:xlink="http://www.w3.org/1999/xlink"><g id="tight-bounds" transform="matrix(1,0,0,1,0.2400000000000091,-0.09999999999999432)"><svg viewBox="0 0 395.52 247.2" height="247.2" width="395.52"><g><svg></svg></g><g><svg viewBox="0 0 395.52 247.2" height="247.2" width="395.52"><g><path xmlns="http://www.w3.org/2000/svg" d="M55.039 247.2l26.403-45.732 0.897 0-25.931 44.913h282.704l-25.931-44.913 0.897 0 26.403 45.732zM197.76 0l26.403 45.732h-0.896l-25.507-44.18-25.507 44.18-0.896 0z" fill="#000000" fill-rule="nonzero" stroke="none" stroke-width="1" stroke-linecap="butt" stroke-linejoin="miter" stroke-miterlimit="10" stroke-dasharray="" stroke-dashoffset="0" font-family="none" font-weight="none" font-size="none" text-anchor="none" style="mix-blend-mode: normal" data-fill-palette-color="tertiary"></path></g><g transform="matrix(1,0,0,1,28.022428982514157,67.97999999999999)"><svg viewBox="0 0 339.47514203497167 111.24" height="111.24" width="339.47514203497167"><g><svg viewBox="0 0 395.52 129.60490873133648" height="111.24" width="339.47514203497167"><g transform="matrix(1,0,0,1,0,85.09639257040797)"><svg viewBox="0 0 395.52 44.508516160928494" height="44.508516160928494" width="395.52"><g id="textblocktransform"><svg viewBox="0 0 395.52 44.508516160928494" height="44.508516160928494" width="395.52" id="textblock"><g><svg viewBox="0 0 395.52 44.508516160928494" height="44.508516160928494" width="395.52"><g transform="matrix(1,0,0,1,0,0)"><svg width="395.52" viewBox="4.8765997886657715 -32.685150146484375 388.3114318847656 43.697322845458984" height="44.508516160928494" data-palette-color="#111111"><path d="M17.544-18.395v0l-6.139 0.611 2.259 22.698 4.338-0.432c1.088-0.108 1.989-0.215 2.702-0.319 0.707-0.097 1.628-0.299 2.764-0.607 1.135-0.307 2.094-0.671 2.876-1.09 0.776-0.419 1.57-1.017 2.384-1.795 0.808-0.77 1.455-1.676 1.94-2.715v0c0.895-1.911 1.222-4.078 0.981-6.499v0c-0.138-1.386-0.458-2.648-0.959-3.784-0.508-1.129-1.119-2.059-1.836-2.792-0.723-0.739-1.546-1.364-2.467-1.875-0.922-0.518-1.841-0.899-2.757-1.142-0.915-0.244-1.847-0.382-2.795-0.415v0c-0.801-0.034-1.898 0.018-3.291 0.156zM4.877-22.691l11.951-1.19c2.123-0.211 4.093-0.24 5.91-0.086 1.818 0.154 3.405 0.452 4.762 0.893 1.35 0.442 2.573 1.017 3.669 1.725 1.088 0.702 2.003 1.479 2.744 2.33 0.742 0.857 1.375 1.803 1.9 2.836 0.525 1.033 0.922 2.059 1.191 3.077 0.269 1.018 0.458 2.082 0.569 3.189v0c0.145 1.453 0.165 2.868 0.06 4.245-0.097 1.376-0.378 2.795-0.842 4.255-0.465 1.453-1.11 2.784-1.935 3.991-0.831 1.208-1.958 2.335-3.381 3.381-1.417 1.045-3.079 1.878-4.988 2.496v0c-0.973 0.318-2.061 0.597-3.263 0.838-1.209 0.241-2.204 0.41-2.984 0.508-0.781 0.091-1.875 0.207-3.282 0.347v0l-8.727 0.868zM45.969 7.452l10.821-34.788 6.551-0.496 15.922 32.76-6.162 0.467-4.44-8.559-13.79 1.046-3.109 9.131zM56.529-7.76l9.622-0.729-5.756-12.16zM79.846-23.46l-0.311-5.522 30.551-1.723 0.312 5.521-12.281 0.693 1.597 28.295-6.001 0.338-1.596-28.295zM114.99 3.017l12.131-34.353 6.565-0.248 14.67 33.339-6.176 0.234-4.112-8.721-13.82 0.522-3.452 9.007zM126.119-11.784l9.643-0.365-5.291-12.369zM150.014-26.591l-0.102-5.529 30.595-0.565 0.102 5.529-12.298 0.227 0.524 28.335-6.009 0.111-0.524-28.335zM184.13 1.198l13.423-33.868 6.57 0 13.397 33.872-6.18-0.001-3.78-8.87-13.83-0.002-3.79 8.87zM195.811-13.171l9.65 0.001-4.819-12.56zM224.603 1.355l0.589-33.865 6.009 0.104-0.493 28.356 17.158 0.298-0.096 5.51zM262.512-31.551l-0.56 15.51 15.99-14.953 7.695 0.277-16.854 15.613 16.492 18.266-7.795-0.281-15.598-16.973-0.591 16.389-6.007-0.217 1.222-33.848zM316.433 4.94l-23.724-1.303 1.857-33.819 23.724 1.303-0.303 5.522-17.703-0.972-0.446 8.117 16.395 0.901-0.303 5.521-16.396-0.9-0.501 9.136 17.703 0.973zM354.869-16.381v0c-0.081 1.077-0.288 2.094-0.621 3.052-0.339 0.957-0.822 1.864-1.448 2.719-0.633 0.862-1.462 1.615-2.487 2.26-1.031 0.638-2.226 1.103-3.584 1.395v0l9.129 14.887-7.788-0.586-8.479-13.805-5.724-0.431-0.984 13.093-5.993-0.45 2.54-33.775 14.379 1.082c0.711 0.053 1.365 0.123 1.96 0.207 0.589 0.084 1.303 0.235 2.142 0.452 0.833 0.216 1.569 0.476 2.208 0.778 0.639 0.302 1.293 0.726 1.961 1.271 0.668 0.545 1.209 1.164 1.625 1.857 0.423 0.687 0.746 1.547 0.969 2.58 0.224 1.026 0.288 2.164 0.195 3.414zM341.641-21.578l-6.631-0.499-0.728 9.673 5.515 0.415c0.951 0.071 1.791 0.101 2.52 0.089 0.736-0.005 1.5-0.078 2.293-0.219 0.786-0.141 1.445-0.366 1.976-0.673 0.525-0.315 0.97-0.769 1.336-1.364 0.372-0.587 0.589-1.303 0.653-2.147v0c0.237-3.151-2.074-4.909-6.934-5.275zM383.047-23.75v0c3.152 0.302 6.217 1.067 9.193 2.297v0l0.948 0.382-2.478 5.318-0.87-0.355c-2.791-1.064-5.365-1.709-7.721-1.934v0c-2.323-0.222-4.347-0.031-6.072 0.574-1.725 0.598-2.644 1.492-2.758 2.679v0c-0.074 0.77 0.23 1.485 0.909 2.147 0.674 0.654 1.579 1.239 2.715 1.757 1.13 0.51 2.383 1.032 3.758 1.565 1.382 0.534 2.758 1.128 4.129 1.781 1.377 0.661 2.617 1.386 3.72 2.175 1.103 0.795 1.968 1.792 2.597 2.991 0.628 1.205 0.872 2.541 0.731 4.008v0c-0.091 0.949-0.343 1.872-0.757 2.77-0.413 0.891-1.045 1.752-1.895 2.581-0.856 0.829-1.88 1.524-3.072 2.087-1.199 0.562-2.691 0.971-4.478 1.229-1.785 0.251-3.763 0.273-5.933 0.065-2.163-0.207-4.098-0.597-5.805-1.169-1.7-0.571-3.486-1.328-5.358-2.27v0l-0.844-0.423 2.57-5.54 0.892 0.437c3.858 1.809 7.085 2.838 9.68 3.086v0c2.436 0.233 4.445 0.05 6.03-0.548 1.584-0.598 2.435-1.508 2.552-2.729v0c0.065-0.677-0.109-1.306-0.523-1.888-0.406-0.581-0.977-1.095-1.711-1.54-0.741-0.446-1.6-0.876-2.579-1.292-0.972-0.414-1.997-0.824-3.077-1.229-1.08-0.405-2.154-0.836-3.221-1.293-1.075-0.451-2.094-0.971-3.055-1.558-0.955-0.587-1.791-1.226-2.509-1.918-0.711-0.691-1.254-1.52-1.631-2.486-0.37-0.966-0.5-2.02-0.39-3.162v0c0.273-2.847 1.898-5.102 4.877-6.766 2.979-1.664 6.791-2.273 11.436-1.829z" opacity="1" transform="matrix(1,0,0,1,0,0)" fill="#000000" class="wordmark-text-0" data-fill-palette-color="primary" id="text-0"></path></svg></g></svg></g></svg></g></svg></g><g transform="matrix(1,0,0,1,168.69298017022305,0)"><svg viewBox="0 0 58.13403965955387 72.0147791483823" height="72.0147791483823" width="58.13403965955387"><g><svg xmlns="http://www.w3.org/2000/svg" xmlns:xlink="http://www.w3.org/1999/xlink" version="1.1" x="0" y="0" viewBox="9.613998413085938 0.00047716498374938965 80.77400970458984 100.0605239868164" enable-background="new 0 0 100 100" xml:space="preserve" width="58.13403965955387" height="72.0147791483823" class="icon-icon-0" data-fill-palette-color="accent" id="icon-0"><path fill="#000000" d="M90.386 16.252c0-0.012 0.001-0.024 0-0.036 0-0.019-0.003-0.039-0.003-0.058-0.002-0.033-0.003-0.065-0.006-0.097-0.003-0.031-0.006-0.062-0.009-0.092-0.004-0.032-0.008-0.064-0.012-0.096-0.004-0.03-0.01-0.061-0.015-0.091-0.006-0.032-0.012-0.063-0.019-0.095-0.006-0.03-0.014-0.06-0.021-0.089-0.008-0.031-0.016-0.062-0.025-0.092-0.008-0.029-0.017-0.058-0.027-0.087-0.01-0.03-0.02-0.06-0.031-0.091-0.01-0.028-0.021-0.057-0.032-0.085-0.012-0.03-0.024-0.059-0.037-0.089-0.012-0.027-0.024-0.054-0.037-0.082-0.014-0.029-0.029-0.058-0.044-0.087-0.013-0.026-0.027-0.052-0.042-0.078-0.016-0.029-0.033-0.057-0.05-0.084-0.015-0.025-0.03-0.05-0.046-0.074-0.018-0.028-0.037-0.055-0.056-0.082-0.017-0.024-0.033-0.047-0.05-0.071-0.02-0.027-0.041-0.053-0.061-0.079-0.018-0.023-0.036-0.045-0.055-0.067-0.022-0.025-0.044-0.05-0.067-0.075-0.019-0.021-0.038-0.043-0.058-0.063-0.023-0.024-0.048-0.047-0.072-0.071-0.021-0.02-0.042-0.04-0.063-0.06-0.025-0.022-0.051-0.044-0.076-0.065-0.023-0.019-0.045-0.038-0.068-0.056-0.026-0.021-0.053-0.04-0.08-0.06-0.024-0.018-0.048-0.035-0.072-0.052-0.028-0.019-0.057-0.037-0.085-0.055-0.025-0.016-0.05-0.032-0.076-0.047-0.005-0.003-0.01-0.006-0.015-0.009-0.026-0.015-0.053-0.029-0.08-0.043-0.02-0.011-0.04-0.023-0.061-0.034L62.276 0.306c-0.849-0.43-1.858-0.405-2.685 0.068L48.595 6.658c-0.013 0.007-0.025 0.016-0.037 0.023-0.013 0.008-0.027 0.015-0.04 0.023-0.015 0.01-0.03 0.02-0.045 0.03-0.025 0.016-0.051 0.033-0.076 0.05-0.027 0.018-0.053 0.038-0.079 0.057-0.024 0.018-0.048 0.036-0.072 0.054-0.026 0.02-0.05 0.041-0.075 0.062-0.023 0.019-0.045 0.038-0.067 0.058-0.024 0.022-0.048 0.045-0.071 0.068-0.021 0.02-0.042 0.04-0.062 0.061-0.023 0.024-0.046 0.049-0.068 0.074-0.019 0.021-0.038 0.041-0.056 0.063-0.022 0.026-0.043 0.053-0.064 0.08-0.017 0.021-0.034 0.042-0.051 0.064C47.71 7.451 47.69 7.48 47.67 7.509c-0.015 0.022-0.03 0.043-0.044 0.064-0.021 0.032-0.04 0.065-0.06 0.098-0.012 0.02-0.024 0.039-0.035 0.059-0.027 0.048-0.052 0.096-0.075 0.145-0.008 0.017-0.016 0.033-0.024 0.05-0.02 0.044-0.041 0.089-0.059 0.135-0.009 0.024-0.018 0.048-0.026 0.072-0.012 0.034-0.025 0.067-0.036 0.101-0.009 0.027-0.016 0.055-0.024 0.082-0.009 0.032-0.019 0.063-0.027 0.095-0.007 0.029-0.014 0.058-0.02 0.088-0.007 0.031-0.014 0.062-0.02 0.093-0.006 0.03-0.01 0.061-0.015 0.091-0.005 0.031-0.01 0.062-0.014 0.093-0.004 0.031-0.006 0.062-0.009 0.093-0.003 0.031-0.006 0.062-0.007 0.093-0.002 0.031-0.002 0.063-0.003 0.095 0 0.02-0.002 0.04-0.002 0.061V16.3L24.72 4.927c-0.849-0.43-1.858-0.405-2.684 0.068L11.04 11.279c-0.012 0.007-0.024 0.015-0.036 0.022-0.014 0.008-0.028 0.015-0.041 0.024-0.016 0.01-0.031 0.021-0.046 0.03-0.025 0.016-0.049 0.032-0.073 0.048-0.028 0.019-0.054 0.038-0.081 0.058-0.024 0.018-0.048 0.035-0.071 0.054-0.026 0.02-0.05 0.041-0.075 0.062-0.023 0.019-0.045 0.038-0.068 0.058-0.024 0.022-0.047 0.044-0.07 0.066-0.021 0.021-0.043 0.041-0.064 0.063-0.022 0.023-0.044 0.047-0.065 0.071-0.02 0.022-0.04 0.043-0.059 0.066-0.021 0.025-0.041 0.05-0.061 0.075-0.018 0.023-0.037 0.045-0.054 0.068-0.02 0.027-0.038 0.054-0.057 0.081-0.016 0.023-0.033 0.046-0.048 0.069-0.019 0.03-0.037 0.06-0.055 0.09-0.013 0.022-0.027 0.044-0.04 0.066-0.023 0.041-0.044 0.083-0.065 0.125-0.014 0.027-0.027 0.055-0.039 0.083-0.018 0.04-0.037 0.08-0.053 0.121-0.01 0.025-0.018 0.049-0.027 0.074-0.012 0.033-0.025 0.065-0.036 0.099-0.009 0.027-0.016 0.054-0.024 0.082-0.009 0.032-0.019 0.063-0.027 0.096-0.007 0.028-0.013 0.057-0.02 0.086-0.007 0.032-0.015 0.063-0.021 0.095-0.006 0.029-0.01 0.059-0.014 0.089-0.005 0.032-0.01 0.063-0.014 0.095-0.004 0.03-0.006 0.061-0.009 0.091-0.003 0.032-0.006 0.064-0.008 0.096-0.002 0.031-0.002 0.062-0.003 0.093 0 0.021-0.002 0.041-0.002 0.062V79c0 1.067 0.6 2.043 1.552 2.526l26.559 13.459c0.403 0.204 0.842 0.306 1.28 0.306 0.515 0 1.029-0.14 1.482-0.419 0.006-0.004 0.012-0.008 0.018-0.012l3.311-1.894 13.396 6.789c0.403 0.204 0.842 0.306 1.28 0.306 0.515 0 1.029-0.14 1.483-0.419 0.007-0.004 0.013-0.009 0.02-0.013l10.9-6.236c0.882-0.504 1.425-1.442 1.425-2.458V64.395l2.961 1.5c0.403 0.204 0.842 0.306 1.28 0.306 0.515 0 1.029-0.14 1.482-0.419 0.007-0.004 0.014-0.01 0.021-0.014l10.899-6.235c0.881-0.504 1.425-1.442 1.425-2.458V16.287C90.387 16.275 90.386 16.264 90.386 16.252zM61.077 6.047l20.509 10.39-5.108 2.919L55.969 8.966 61.077 6.047zM36.172 87.85l-20.896-10.59V18.346l20.896 10.588V87.85zM38.922 23.977l-20.508-10.39 5.108-2.919 20.509 10.39L38.922 23.977zM47.169 84.522l-5.333 3.051V28.836l5.333-3.048v18.07V84.522zM55.659 92.619l-5.96-3.021 1.707-0.977c0.881-0.504 1.425-1.442 1.425-2.458V61.758l2.828 1.433V92.619zM58.409 58.234l-5.577-2.826v-5.507l10.685 5.413L58.409 58.234zM66.655 89.292l-5.333 3.051v-29.25l5.333-3.048V89.292zM72.317 55.131c0-0.013 0.001-0.025 0.001-0.038-0.001-0.02-0.003-0.041-0.004-0.061-0.001-0.031-0.003-0.062-0.006-0.093-0.003-0.032-0.006-0.065-0.01-0.098-0.003-0.03-0.007-0.06-0.011-0.09-0.005-0.033-0.01-0.065-0.016-0.097-0.006-0.029-0.011-0.059-0.018-0.088-0.007-0.032-0.014-0.064-0.022-0.095-0.008-0.029-0.015-0.058-0.024-0.087-0.009-0.031-0.018-0.062-0.028-0.093-0.009-0.029-0.019-0.057-0.029-0.085-0.011-0.03-0.022-0.06-0.034-0.089-0.011-0.028-0.023-0.057-0.035-0.084-0.012-0.029-0.025-0.057-0.038-0.085-0.014-0.028-0.028-0.056-0.042-0.084-0.014-0.027-0.028-0.054-0.043-0.08-0.016-0.028-0.032-0.056-0.049-0.083-0.015-0.025-0.03-0.05-0.046-0.075-0.018-0.028-0.037-0.055-0.056-0.082-0.017-0.023-0.033-0.047-0.05-0.07-0.02-0.027-0.041-0.054-0.063-0.08-0.018-0.022-0.035-0.044-0.053-0.065-0.022-0.026-0.046-0.052-0.069-0.077-0.019-0.02-0.037-0.041-0.057-0.061-0.024-0.025-0.05-0.049-0.075-0.073-0.02-0.019-0.04-0.038-0.06-0.057-0.026-0.023-0.052-0.045-0.079-0.068-0.022-0.018-0.043-0.036-0.065-0.054-0.027-0.021-0.055-0.041-0.083-0.062-0.023-0.017-0.046-0.034-0.07-0.051-0.028-0.019-0.057-0.037-0.086-0.056-0.025-0.016-0.049-0.032-0.075-0.047-0.005-0.003-0.01-0.006-0.014-0.009-0.027-0.015-0.054-0.029-0.081-0.043-0.02-0.011-0.04-0.023-0.061-0.034l-17.935-9.086V20.908v-7.183l20.896 10.588V58.76l-1.409-0.714v-2.882C72.319 55.153 72.317 55.142 72.317 55.131zM84.724 55.433l-5.333 3.051V24.215l5.333-3.048V55.433z" data-fill-palette-color="accent"></path></svg></g></svg></g><g></g></svg></g></svg></g></svg></g><defs></defs></svg><rect width="395.52" height="247.2" fill="none" stroke="none" visibility="hidden"></rect></g></svg></g></svg>